<svg xmlns:xlink="http://www.w3.org/1999/xlink" xmlns="http://www.w3.org/2000/svg" width="107" height="32" viewBox="0 0 107 32" fill="none" id="svg-784290263_1720">
<path fill-rule="evenodd" clip-rule="evenodd" d="M31.9561 8.00001C31.9561 3.58384 28.3763 0 23.967 0H7.98907C3.57974 0 0 3.58384 0 8.00001V24C0 28.4142 3.57974 32 7.98907 32H23.967C28.3763 32 31.9561 28.4142 31.9561 24V8.00001Z" fill="#157DFF"></path>
<path fill-rule="evenodd" clip-rule="evenodd" d="M14.2876 16.0003L24.7614 5.51123V26.4874L14.2876 16.0003V16.0003ZM14.2876 5.54648V26.4522C8.84521 26.0821 4.54559 21.5445 4.54559 16.0004C4.54559 10.4562 8.84521 5.9186 14.2876 5.54649V5.54648Z" fill="#FFFFFF"></path>
<path fill-rule="evenodd" clip-rule="evenodd" d="M45.0016 4.67657V16.1703L53.8459 4.67657H60.2935L50.7402 16.9478L61.5424 29.1838H53.8797L45.0016 18.9414V29.1838H39.2291V4.67664H45.0016V4.67657ZM67.2809 4.67578V29.1838H61.7111V4.67578H67.2809ZM86.8937 21.5108H74.3363C74.8763 24.4856 77.6106 25.0614 79.8049 25.0614C81.5601 25.0614 83.7883 24.654 85.4422 23.8766V28.5414C84.0582 29.1172 81.8979 29.6244 78.7922 29.6244C73.2224 29.6244 68.834 26.0406 68.834 19.9892C68.834 14.1767 72.9523 10.4577 78.2182 10.4577C84.2608 10.4577 87.2651 15.0207 86.8937 21.5108ZM78.0158 14.6487C76.3617 14.6487 74.5726 15.3928 74.3025 18.1307H81.459C81.459 15.7316 79.9062 14.6487 78.0158 14.6487ZM97.2913 10.4577C102.321 10.4577 106.911 13.4325 106.911 20.0244C106.911 26.6163 102.321 29.6244 97.2913 29.6244C92.2613 29.6244 87.6702 26.6163 87.6702 20.0244C87.6702 13.4325 92.2613 10.4577 97.2913 10.4577ZM97.2913 14.7838C95.097 14.7838 93.3408 16.137 93.3408 20.0244C93.3408 23.8433 95.0286 25.2964 97.2913 25.2964C99.5521 25.2964 101.24 23.8433 101.24 20.0244C101.24 16.137 99.4857 14.7838 97.2913 14.7838Z" fill="#1E1E20"></path>
</svg>